<svg version="1.1" id="Layer_1" xmlns="http://www.w3.org/2000/svg" xmlns:xlink="http://www.w3.org/1999/xlink" x="0px" y="0px"
	 width="100%" viewBox="0 0 228 254" enable-background="new 0 0 228 254" xml:space="preserve">
<path fill="#FEFEFE" opacity="1.000000" stroke="none" 
	d="
M119.000000,255.000000 
	C79.333336,255.000000 40.166672,255.000000 1.000005,255.000000 
	C1.000004,170.333344 1.000004,85.666679 1.000002,1.000017 
	C76.999992,1.000011 152.999985,1.000011 228.999969,1.000005 
	C228.999985,85.666649 228.999985,170.333298 229.000000,254.999969 
	C192.500000,255.000000 156.000000,255.000000 119.000000,255.000000 
M58.969059,125.099319 
	C58.969059,125.099319 58.817337,125.244179 59.224228,125.716797 
	C59.820168,125.864166 60.416107,126.011536 61.202080,126.298836 
	C61.202080,126.298836 61.429062,126.234276 61.866329,126.899376 
	C60.727882,128.705093 59.589436,130.510818 57.807232,133.337616 
	C63.144737,131.880966 67.861992,130.593597 72.786026,129.409134 
	C72.786026,129.409134 72.985458,129.292603 73.649818,129.349533 
	C75.237244,128.882599 76.824669,128.415680 78.623909,127.303093 
	C78.512749,126.866348 78.401588,126.429596 78.397247,125.235115 
	C78.261787,124.488815 78.126328,123.742516 78.037094,122.194939 
	C77.954727,121.130661 77.872360,120.066391 77.957733,118.496635 
	C77.913422,118.324760 77.869110,118.152885 77.989578,117.142891 
	C78.083603,115.437714 78.177628,113.732544 78.662590,111.624367 
	C78.747459,111.079292 78.832321,110.534225 79.241676,109.342163 
	C79.973946,107.270599 80.706215,105.199028 81.910851,102.690536 
	C83.314392,100.498802 84.717934,98.307060 86.649162,95.850990 
	C87.251297,95.087364 87.853432,94.323738 89.039551,93.220772 
	C92.114372,90.940063 95.189194,88.659355 98.929718,86.279427 
	C99.957062,85.838799 100.984406,85.398178 102.510414,84.930527 
	C102.860588,84.826866 103.087929,84.600075 103.246498,84.272087 
	C103.246498,84.272087 103.304825,84.273933 104.004501,84.277138 
	C105.129776,83.966125 106.255051,83.655121 108.111099,83.359497 
	C109.067352,83.193542 110.023605,83.027588 111.889290,83.000290 
	C115.196899,83.196083 118.504501,83.391876 122.331253,83.940636 
	C123.172874,84.026939 124.014496,84.113243 125.385986,84.656380 
	C127.145882,85.289276 128.905777,85.922173 131.181046,86.990479 
	C132.483032,87.879372 133.785004,88.768265 135.230286,89.821892 
	C135.230286,89.821892 135.599152,90.058968 136.194992,90.292931 
	C136.782532,90.896545 137.370071,91.500168 137.896133,92.690445 
	C137.280365,93.410904 136.664597,94.131363 135.492523,94.655075 
	C134.989700,94.347908 134.486893,94.040741 133.772903,93.407982 
	C133.593384,93.211426 133.375610,93.076683 132.686554,92.579063 
	C132.132324,92.357384 131.578094,92.135696 130.609573,91.359932 
	C119.647934,85.393700 108.740639,84.672455 97.227470,91.875771 
	C94.622902,94.189957 92.018341,96.504143 88.981590,99.122986 
	C88.608955,99.719139 88.236313,100.315292 87.309563,101.328087 
	C86.306473,102.928017 85.303383,104.527954 84.131828,106.344948 
	C84.032722,106.505226 83.974899,106.679245 83.889786,107.590797 
	C83.499138,108.737411 83.108498,109.884026 82.332787,111.412216 
	C82.286270,111.765427 82.239754,112.118645 82.223602,113.343620 
	C81.741318,119.060371 80.763206,124.861427 84.529991,130.580246 
	C81.189476,131.259399 77.848961,131.938568 73.903725,132.628128 
	C70.266899,133.417572 66.630066,134.207001 62.181061,135.023376 
	C56.985661,136.429657 51.790257,137.835922 46.594852,139.242188 
	C46.709278,139.672775 46.823700,140.103348 46.938126,140.533920 
	C55.284420,139.336197 63.630711,138.138458 72.870628,137.019455 
	C80.241585,136.644104 87.612541,136.268738 95.589035,136.034088 
	C96.003181,136.036942 96.417320,136.039810 96.554550,136.755478 
	C90.520142,137.875656 84.485725,138.995850 78.451317,140.116028 
	C78.489532,140.371338 78.527756,140.626633 78.565971,140.881943 
	C102.348679,140.881943 126.131386,140.881943 149.914093,140.881943 
	C149.950226,140.608749 149.986359,140.335571 150.022476,140.062378 
	C143.655838,139.046661 137.289185,138.030960 131.226227,136.318314 
	C132.175095,135.986969 133.123962,135.655624 134.956146,135.611969 
	C143.915756,136.196152 152.875381,136.780334 162.521118,137.718155 
	C168.972931,138.692810 175.424728,139.667465 181.876541,140.642120 
	C181.984512,140.157379 182.092484,139.672653 182.200455,139.187927 
	C175.805054,137.526703 169.409653,135.865494 162.359497,133.962845 
	C159.319901,133.439865 156.280304,132.916870 152.543060,132.085709 
	C134.175140,129.252197 115.743774,128.198013 97.182152,129.803009 
	C93.120705,130.154190 89.003189,129.856964 84.800301,128.909821 
	C88.692276,127.975922 92.584244,127.042030 96.891304,126.008530 
	C96.686584,124.499580 96.447784,122.739449 96.376198,120.107056 
	C96.332634,117.744225 96.289070,115.381401 96.403641,112.207451 
	C96.451080,110.833549 96.498512,109.459648 97.057655,107.579300 
	C98.661034,106.950386 100.228188,106.190956 101.878929,105.732666 
	C103.272385,105.345818 105.532822,105.836861 106.086075,105.030876 
	C109.841125,99.560471 115.196754,101.999054 120.398964,102.442574 
	C122.160851,103.520569 123.890915,105.436531 125.691139,105.504890 
	C129.632614,105.654579 132.087402,106.721970 132.050278,111.671951 
	C132.089325,112.114403 132.128357,112.556862 131.981232,113.872726 
	C132.049438,116.248573 132.117661,118.624420 132.036209,121.863693 
	C132.036209,123.327400 132.036209,124.791100 132.036209,126.624077 
	C136.620667,127.026627 140.982285,127.409615 145.439087,127.800957 
	C147.370621,121.498276 147.393448,115.695534 145.154114,109.217133 
	C144.713013,108.163170 144.271927,107.109207 143.698715,105.389954 
	C142.159439,103.171257 140.620178,100.952560 139.141586,98.342117 
	C139.141586,98.342117 139.155975,97.945961 139.619980,97.591019 
	C140.374557,97.076668 141.129120,96.562317 142.455826,96.401352 
	C144.008942,98.596359 145.562057,100.791374 147.216370,103.684776 
	C147.888748,105.463593 148.561142,107.242416 149.219528,109.481880 
	C149.313461,109.810448 149.526413,110.015602 149.952347,110.087494 
	C149.952347,110.087494 149.876938,110.144447 149.853012,110.796989 
	C149.961136,111.217819 150.069260,111.638641 150.186478,112.631271 
	C150.263733,112.805550 150.340973,112.979820 150.375244,113.641861 
	C150.431137,113.988014 150.602524,114.262047 150.691589,115.151878 
	C150.778015,116.097565 150.864456,117.043251 150.718948,118.748695 
	C150.464371,121.846596 150.209793,124.944496 149.922165,128.444717 
	C154.429703,129.271317 158.755692,130.136948 163.112915,130.796219 
	C163.886139,130.913208 165.504501,130.205460 165.522614,129.821457 
	C165.720459,125.629807 169.323669,125.887985 171.840683,124.895142 
	C174.827286,123.717056 177.934158,122.843887 181.352997,121.718750 
	C180.602417,121.014183 180.319077,120.562401 179.924530,120.421104 
	C179.322052,120.205338 178.642761,120.204063 177.339081,119.786705 
	C172.884979,117.864067 168.430878,115.941422 164.078674,113.407875 
	C164.126709,112.998375 164.174744,112.588875 164.914078,112.080429 
	C168.352997,109.787888 171.791931,107.495346 175.649673,104.923592 
	C170.512100,104.194969 166.288666,103.595993 162.070862,102.332634 
	C162.063965,101.890739 162.057068,101.448845 162.373764,100.428429 
	C164.749908,96.968155 167.126053,93.507881 170.124985,89.658577 
	C170.437012,89.282806 170.749039,88.907043 171.424500,88.422012 
	C171.711090,88.333603 171.997681,88.245201 171.990509,88.247414 
	C171.871399,88.292053 171.463943,88.444763 170.562027,88.094208 
	C165.062424,88.694237 159.562805,89.294266 154.037231,89.418251 
	C154.037231,89.418251 153.903915,88.960678 154.156082,88.284302 
	C155.473236,85.018921 156.790375,81.753548 158.107529,78.488167 
	C157.846344,78.100960 157.585175,77.713753 157.323990,77.326553 
	C153.878708,78.869324 150.433426,80.412094 146.433578,81.510818 
	C146.231018,80.349876 146.028473,79.188927 145.962997,77.195038 
	C146.442368,73.798553 146.921738,70.402077 147.810425,66.461433 
	C147.810425,65.391197 147.810425,64.320953 147.810425,62.874943 
	C143.312241,66.531952 139.167313,69.901779 134.306885,73.285477 
	C133.618240,73.112137 132.929581,72.938805 132.191833,71.898109 
	C131.745972,67.918793 131.300125,63.939480 130.776855,59.269249 
	C127.733109,63.576782 125.172188,67.201004 122.318565,70.755768 
	C122.318565,70.755768 122.046791,70.887779 121.501755,70.465607 
	C119.095253,64.683784 116.688751,58.901962 114.134804,52.765884 
	C113.879593,53.829563 113.696449,54.592907 113.095673,55.960285 
	C111.092171,60.730938 109.088661,65.501595 106.461746,70.102013 
	C106.060287,69.948662 105.658821,69.795303 104.992943,69.027084 
	C102.596077,65.900558 100.199203,62.774033 97.357628,59.067421 
	C97.134491,63.226551 96.959419,66.489708 96.406891,70.228249 
	C96.348701,70.814865 96.290512,71.401474 96.110695,72.503372 
	C96.118217,72.679688 96.125748,72.856003 95.422897,73.188026 
	C94.945274,73.264359 94.467651,73.340691 93.444077,72.974564 
	C90.081154,70.285385 86.769783,67.526749 83.314491,64.962013 
	C82.567978,64.407913 81.303345,64.551826 80.277367,64.374222 
	C80.532974,65.249229 80.788589,66.124237 80.991364,67.489693 
	C80.991364,67.489693 81.103645,67.970024 81.060921,68.506859 
	C81.246674,68.804886 81.432434,69.102913 81.714462,70.216858 
	C82.099495,73.753059 82.484528,77.289261 82.165489,80.996918 
	C81.443771,81.035072 80.722054,81.073219 79.335838,80.793633 
	C76.374016,79.758667 73.412193,78.723701 69.403664,77.322983 
	C71.599251,82.020226 73.191238,85.426132 74.330254,89.383400 
	C74.219170,89.593719 74.108078,89.804047 73.155846,89.958771 
	C68.109016,89.292870 63.062191,88.626976 58.011879,87.993042 
	C58.011879,87.993042 58.030563,87.970741 57.724560,87.423355 
	C56.954861,87.308701 56.185165,87.194046 54.472084,86.938866 
	C55.747356,88.105095 56.323624,88.632088 57.194519,89.754166 
	C60.378174,93.766167 63.561829,97.778160 66.263206,102.302391 
	C65.764168,102.784782 65.265121,103.267174 63.878708,103.796654 
	C60.374905,104.051651 56.871101,104.306656 52.691284,104.610855 
	C56.514954,107.333290 59.798416,109.671104 63.250954,112.766205 
	C63.263176,113.531326 63.275394,114.296448 62.579754,115.286987 
	C58.182316,117.097961 53.784874,118.908936 48.779469,120.606018 
	C47.892643,120.837448 47.005814,121.068886 44.951370,121.605026 
	C48.337395,122.279930 50.518063,122.714584 53.255558,123.602425 
	C54.177494,123.815605 55.099426,124.028793 56.203712,124.386063 
	C56.203712,124.386063 56.426739,124.320732 56.889545,124.826904 
	C57.545898,124.977150 58.202255,125.127403 58.969059,125.099319 
M29.008198,162.487061 
	C29.008198,162.487061 29.005630,162.002640 28.921423,161.257492 
	C26.165865,151.427032 23.410305,141.596573 20.654745,131.766129 
	C20.246759,135.290009 20.116041,139.002762 21.091316,142.397827 
	C23.093424,149.367401 25.687998,156.166779 28.503967,163.020645 
	C28.503967,163.020645 28.969307,163.006989 28.969225,163.658508 
	C28.966820,164.092331 28.964413,164.526154 28.481583,165.316238 
	C28.325285,165.880356 28.168989,166.444489 28.223806,167.445267 
	C28.421803,167.716873 28.681255,167.902679 29.487194,168.019501 
	C29.487194,168.019501 29.972147,168.038361 29.965143,168.514069 
	C29.965143,168.514069 29.965628,168.989838 29.470156,169.400269 
	C29.974121,170.271591 30.478088,171.142914 31.240038,172.598343 
	C31.495800,173.396713 31.751562,174.195084 32.067261,175.687637 
	C33.042290,176.793808 34.017323,177.899963 35.000000,179.000000 
	C35.000000,179.000000 34.993717,179.005920 35.005486,179.712173 
	C35.668415,180.476471 36.331345,181.240768 37.567970,182.290268 
	C38.376678,183.528503 39.185383,184.766724 40.003960,186.732346 
	C41.001865,187.822327 41.999771,188.912292 43.593376,190.293396 
	C46.061272,192.863281 48.529167,195.433167 51.080494,198.644302 
	C51.720810,199.095734 52.361126,199.547180 53.694283,200.075394 
	C56.793839,202.386337 59.893398,204.697296 63.056683,207.590866 
	C63.704506,207.735474 64.352333,207.880081 65.660721,208.023712 
	C66.100777,208.024857 66.540840,208.026001 67.524925,208.409393 
	C69.680267,209.944290 71.835602,211.479187 74.118317,213.720383 
	C78.411911,215.150452 82.705513,216.580521 87.660851,218.011871 
	C88.101982,218.016678 88.543106,218.021469 89.124092,218.744034 
	C92.776840,221.097198 96.519341,222.981430 101.661270,221.014099 
	C102.103119,221.016968 102.544968,221.019836 103.163170,221.784058 
	C106.108269,221.861420 109.053368,221.938766 112.898720,222.009598 
	C115.599670,222.011673 118.300621,222.013748 121.496185,222.561081 
	C123.331459,222.366516 125.166740,222.171951 127.659988,221.977859 
	C128.098648,221.976883 128.537292,221.975906 129.821396,221.993820 
	C137.564621,219.655884 145.442963,217.676880 152.995850,214.833344 
	C156.960587,213.340652 160.355240,210.333710 164.308823,207.412460 
	C165.869980,206.604187 167.431122,205.795929 169.674240,204.929291 
	C170.454468,203.956833 171.234695,202.984375 172.234741,201.578049 
	C172.433105,201.305679 172.693283,201.119812 173.741562,201.008026 
	C174.832077,200.008881 175.922607,199.009735 177.706650,197.928711 
	C180.472931,194.954941 183.239212,191.981186 186.646225,188.921982 
	C187.096008,188.280304 187.545792,187.638626 188.571014,186.714050 
	C189.050049,185.812836 189.529083,184.911606 190.694794,183.899109 
	C191.134186,182.935150 191.573578,181.971176 192.498947,180.674438 
	C192.677078,180.125854 192.855209,179.577271 193.666382,178.927521 
	C194.110596,178.284653 194.554810,177.641785 195.486450,176.665253 
	C195.661301,176.114716 195.836151,175.564163 196.704666,174.894821 
	C197.076920,174.589249 197.586655,174.359100 197.801651,173.967239 
	C206.533005,158.053040 209.640152,140.731369 209.913818,122.872757 
	C210.137924,108.248795 205.842773,94.438370 200.768661,80.887131 
	C200.517441,80.216217 199.536911,79.818390 198.832535,79.241432 
	C198.539169,79.788689 198.377853,79.948883 198.406967,80.058502 
	C198.574463,80.689087 198.727707,81.334290 198.992996,81.926506 
	C207.215515,100.282372 208.841965,119.404198 206.220428,139.187424 
	C204.623474,151.238861 199.816788,162.075790 194.474884,173.325119 
	C193.969635,174.215302 193.464386,175.105469 192.485168,176.329620 
	C192.309662,176.870132 192.134155,177.410660 191.370224,178.283096 
	C189.565155,181.173737 187.760086,184.064362 185.268936,187.031265 
	C181.487747,190.685059 177.706558,194.338852 173.516647,198.189621 
	C173.257706,198.368256 173.076279,198.606049 172.322647,199.019485 
	C171.207321,200.002747 170.091995,200.986008 168.276016,202.052994 
	C167.694580,202.357697 167.083191,202.616486 166.536041,202.973709 
	C143.101944,218.273254 117.767593,223.005386 90.650871,215.801941 
	C82.877365,213.736923 75.558250,209.961472 67.625504,206.437943 
	C52.856255,196.854813 40.400135,185.107574 32.462940,169.077179 
	C32.019917,168.182434 30.851751,167.646729 30.024973,166.479935 
	C30.024973,166.479935 30.019339,166.015991 30.009819,165.332092 
	C29.675261,164.544968 29.340704,163.757843 29.008198,162.487061 
M39.442043,62.267395 
	C39.168259,63.007778 38.894478,63.748158 38.620697,64.488541 
	C39.413677,63.992302 40.206657,63.496059 41.524300,62.589550 
	C41.684719,61.728199 41.845139,60.866844 42.698452,59.932362 
	C43.395947,59.511749 44.282219,59.243534 44.763012,58.647976 
	C54.039536,47.157185 65.916618,39.308910 79.462845,33.804142 
	C83.464821,32.177860 87.528770,30.704136 91.564323,29.160501 
	C90.665009,28.326103 89.844322,27.990185 89.163620,28.173651 
	C71.078682,33.047977 55.873562,42.661034 43.237049,56.389137 
	C42.448196,57.246136 42.391716,58.777275 41.355080,60.080647 
	C40.902260,60.718597 40.449440,61.356548 39.442043,62.267395 
M122.468178,116.573959 
	C121.390900,111.216415 118.639885,108.259476 114.274902,108.502083 
	C109.693611,108.756691 106.621506,111.133018 105.931076,116.796219 
	C106.841415,122.550018 109.940201,125.429909 114.912567,125.143280 
	C119.557663,124.875519 121.863213,122.234528 122.468178,116.573959 
M125.731659,186.485855 
	C128.540894,189.537781 129.648590,187.723099 129.945496,184.836365 
	C130.205383,182.309738 129.999725,179.735214 129.999725,176.933441 
	C138.685669,180.494537 144.541931,178.891647 146.911026,172.637314 
	C148.628067,168.104309 148.098831,163.806778 144.769241,160.110321 
	C142.557220,157.654572 135.050659,156.306702 131.695877,157.803482 
	C127.447586,159.698929 125.537033,163.270462 125.454819,167.744705 
	C125.345131,173.714478 125.484901,179.688812 125.731659,186.485855 
M80.909599,172.403229 
	C80.912155,170.405380 80.894348,168.407272 80.921700,166.409760 
	C80.971619,162.764038 82.867722,160.791107 86.481758,160.799850 
	C90.085846,160.808548 91.989555,162.800262 92.068161,166.420242 
	C92.122375,168.916534 91.787727,171.467941 92.207893,173.894089 
	C92.516174,175.674210 93.766869,177.291107 94.597549,178.980759 
	C95.338135,177.219223 96.230141,175.501862 96.761856,173.679398 
	C97.075111,172.605728 96.818878,171.365311 96.815285,170.199890 
	C96.777992,158.092514 94.048767,155.817627 81.989189,157.804855 
	C81.742828,157.845459 81.438492,157.534256 80.856133,157.225372 
	C80.856133,154.896576 81.045334,152.387115 80.751671,149.935486 
	C80.651306,149.097641 79.389526,147.884109 78.565422,147.804520 
	C77.857979,147.736145 76.349831,149.028687 76.337982,149.738495 
	C76.187950,158.723816 76.189445,167.713577 76.348267,176.698746 
	C76.361786,177.464081 77.735672,178.734818 78.551262,178.796494 
	C79.260757,178.850159 80.408119,177.655838 80.754677,176.774261 
	C81.154312,175.757675 80.887840,174.479218 80.909599,172.403229 
M69.828804,156.708084 
	C66.717758,159.210281 63.606705,161.712479 59.579834,164.951263 
	C59.579834,159.303314 59.707916,154.865326 59.478516,150.445908 
	C59.428917,149.490402 58.093189,148.601669 57.349869,147.682175 
	C56.567329,148.522476 55.121338,149.349945 55.104801,150.205078 
	C54.937965,158.834167 54.938721,167.469025 55.101509,176.098328 
	C55.119289,177.040939 56.448524,177.958801 57.169472,178.888153 
	C57.955822,177.998383 59.169762,177.219910 59.436592,176.194901 
	C59.941067,174.256973 59.901276,172.177368 60.087650,170.156647 
	C62.546097,171.194046 63.624283,172.797531 65.030670,174.024963 
	C67.035973,175.775101 67.398918,180.080429 71.655624,178.495102 
	C70.629829,176.173325 69.753296,173.769028 68.529961,171.556458 
	C67.588692,169.854080 66.211182,168.392914 64.823090,166.553391 
	C66.948532,164.520447 69.094505,162.887695 70.625214,160.803131 
	C71.263321,159.934158 70.591499,158.103271 69.828804,156.708084 
M106.828468,178.045792 
	C111.298615,179.788574 115.545799,179.586746 119.709885,176.547775 
	C119.251968,175.505798 118.815788,174.513306 118.388161,173.540268 
	C110.232445,176.433731 107.523834,175.656799 105.855408,169.482574 
	C109.782776,169.482574 113.542068,169.341980 117.286324,169.519180 
	C121.680626,169.727127 122.395111,167.669708 121.286453,163.954819 
	C119.700562,158.640793 116.934181,156.844894 108.633369,157.329849 
	C104.425499,157.575714 101.949974,160.837296 101.019058,164.811554 
	C99.761810,170.179062 101.349388,174.629547 106.828468,178.045792 
M30.497368,80.966393 
	C32.906124,76.225334 35.314884,71.484276 38.119862,65.963356 
	C25.101345,75.435684 15.583576,114.536079 21.102285,125.886116 
	C21.737053,110.615677 23.458216,95.584732 30.497368,80.966393 
M162.398010,160.673630 
	C163.901611,160.139099 165.405228,159.604553 166.908844,159.070023 
	C165.383072,158.613037 163.884506,157.966202 162.325272,157.742813 
	C159.886017,157.393356 157.382034,157.059616 154.953888,157.272202 
	C153.904419,157.364090 152.167358,158.795990 152.124298,159.686020 
	C151.860016,165.149307 151.887054,170.635544 152.089020,176.104126 
	C152.124512,177.065308 153.444656,177.979065 154.171524,178.914719 
	C154.885803,177.963242 156.122787,177.060623 156.217133,176.051239 
	C156.509369,172.923996 156.406860,169.755859 156.382599,166.604156 
	C156.355423,163.075409 157.782516,160.881973 162.398010,160.673630 
M169.976120,160.917175 
	C169.974350,165.894577 169.864700,170.876190 170.058823,175.845947 
	C170.099258,176.881424 171.263306,177.872986 171.909561,178.884781 
	C172.658844,178.209091 174.041214,177.549515 174.058899,176.855209 
	C174.224854,170.337738 174.157410,163.814316 174.157410,157.292618 
	C173.611176,157.120880 173.064941,156.949142 172.518707,156.777405 
	C171.675278,157.855713 170.831848,158.934021 169.976120,160.917175 
M169.921173,149.148972 
	C170.593323,150.645233 171.265472,152.141495 171.937622,153.637756 
	C172.931580,152.589859 173.925537,151.541962 174.919495,150.494080 
	C173.421188,149.867767 171.922897,149.241440 169.921173,149.148972 
M196.140594,72.399994 
	C195.649734,72.119659 195.158875,71.839325 194.667999,71.559006 
	C195.136597,72.553406 195.605194,73.547806 196.073792,74.542198 
	C196.193893,74.008972 196.314011,73.475754 196.140594,72.399994 
M158.888382,76.465118 
	C158.888382,76.465118 158.958160,76.638557 158.958160,76.638557 
	C158.958160,76.638557 159.054123,76.451157 158.888382,76.465118 
M108.497589,84.465004 
	C108.497589,84.465004 108.473183,84.502831 108.497589,84.465004 
z"/>
<path fill="#94A57D" opacity="1.000000" stroke="none" 
	d="
M74.508446,132.617706 
	C77.848961,131.938568 81.189476,131.259399 84.757530,130.207169 
	C84.985069,129.834091 84.911499,129.858368 84.911499,129.858368 
	C89.003189,129.856964 93.120705,130.154190 97.182152,129.803009 
	C115.743774,128.198013 134.175140,129.252197 152.645706,132.633362 
	C148.319519,133.451462 143.881912,133.627380 139.466095,134.037857 
	C137.644211,134.207230 135.869171,134.880310 134.072830,135.324280 
	C133.123962,135.655624 132.175095,135.986969 130.614502,136.704681 
	C126.521317,137.056396 123.037308,137.094498 119.558929,136.972183 
	C111.981583,136.705688 104.407112,136.357483 96.831467,136.042679 
	C96.417320,136.039810 96.003181,136.036942 95.193802,135.574615 
	C91.523117,134.741241 88.244820,134.390533 84.973015,133.987106 
	C81.481628,133.556595 77.996376,133.076279 74.508446,132.617706 
z"/>
<path fill="#7961A1" opacity="1.000000" stroke="none" 
	d="
M125.624588,186.073517 
	C125.484901,179.688812 125.345131,173.714478 125.454819,167.744705 
	C125.537033,163.270462 127.447586,159.698929 131.695877,157.803482 
	C135.050659,156.306702 142.557220,157.654572 144.769241,160.110321 
	C148.098831,163.806778 148.628067,168.104309 146.911026,172.637314 
	C144.541931,178.891647 138.685669,180.494537 129.999725,176.933441 
	C129.999725,179.735214 130.205383,182.309738 129.945496,184.836365 
	C129.648590,187.723099 128.540894,189.537781 125.624588,186.073517 
M141.497772,173.142822 
	C142.129059,171.812668 143.482956,170.332718 143.244568,169.182861 
	C142.710983,166.609238 141.989014,163.498260 140.188446,161.947601 
	C138.768677,160.724869 135.012787,160.581268 133.406342,161.642136 
	C131.594849,162.838425 130.381775,165.831100 130.056946,168.199951 
	C129.414734,172.883774 135.545212,177.788956 141.497772,173.142822 
z"/>
<path fill="#846CA9" opacity="1.000000" stroke="none" 
	d="
M80.910110,172.858856 
	C80.887840,174.479218 81.154312,175.757675 80.754677,176.774261 
	C80.408119,177.655838 79.260757,178.850159 78.551262,178.796494 
	C77.735672,178.734818 76.361786,177.464081 76.348267,176.698746 
	C76.189445,167.713577 76.187950,158.723816 76.337982,149.738495 
	C76.349831,149.028687 77.857979,147.736145 78.565422,147.804520 
	C79.389526,147.884109 80.651306,149.097641 80.751671,149.935486 
	C81.045334,152.387115 80.856133,154.896576 80.856133,157.225372 
	C81.438492,157.534256 81.742828,157.845459 81.989189,157.804855 
	C94.048767,155.817627 96.777992,158.092514 96.815285,170.199890 
	C96.818878,171.365311 97.075111,172.605728 96.761856,173.679398 
	C96.230141,175.501862 95.338135,177.219223 94.597549,178.980759 
	C93.766869,177.291107 92.516174,175.674210 92.207893,173.894089 
	C91.787727,171.467941 92.122375,168.916534 92.068161,166.420242 
	C91.989555,162.800262 90.085846,160.808548 86.481758,160.799850 
	C82.867722,160.791107 80.971619,162.764038 80.921700,166.409760 
	C80.894348,168.407272 80.912155,170.405380 80.910110,172.858856 
z"/>
<path fill="#7C63A4" opacity="1.000000" stroke="none" 
	d="
M70.172058,156.708923 
	C70.591499,158.103271 71.263321,159.934158 70.625214,160.803131 
	C69.094505,162.887695 66.948532,164.520447 64.823090,166.553391 
	C66.211182,168.392914 67.588692,169.854080 68.529961,171.556458 
	C69.753296,173.769028 70.629829,176.173325 71.655624,178.495102 
	C67.398918,180.080429 67.035973,175.775101 65.030670,174.024963 
	C63.624283,172.797531 62.546097,171.194046 60.087650,170.156647 
	C59.901276,172.177368 59.941067,174.256973 59.436592,176.194901 
	C59.169762,177.219910 57.955822,177.998383 57.169472,178.888153 
	C56.448524,177.958801 55.119289,177.040939 55.101509,176.098328 
	C54.938721,167.469025 54.937965,158.834167 55.104801,150.205078 
	C55.121338,149.349945 56.567329,148.522476 57.349869,147.682175 
	C58.093189,148.601669 59.428917,149.490402 59.478516,150.445908 
	C59.707916,154.865326 59.579834,159.303314 59.579834,164.951263 
	C63.606705,161.712479 66.717758,159.210281 70.172058,156.708923 
z"/>
<path fill="#7961A1" opacity="1.000000" stroke="none" 
	d="
M106.470825,177.884888 
	C101.349388,174.629547 99.761810,170.179062 101.019058,164.811554 
	C101.949974,160.837296 104.425499,157.575714 108.633369,157.329849 
	C116.934181,156.844894 119.700562,158.640793 121.286453,163.954819 
	C122.395111,167.669708 121.680626,169.727127 117.286324,169.519180 
	C113.542068,169.341980 109.782776,169.482574 105.855408,169.482574 
	C107.523834,175.656799 110.232445,176.433731 118.388161,173.540268 
	C118.815788,174.513306 119.251968,175.505798 119.709885,176.547775 
	C115.545799,179.586746 111.298615,179.788574 106.470825,177.884888 
M116.716148,163.300095 
	C114.441742,162.395340 112.103729,160.671066 109.912750,160.841110 
	C108.110069,160.981033 106.481819,163.368332 104.776268,164.759598 
	C105.038269,165.165771 105.300278,165.571930 105.562279,165.978104 
	C108.697586,165.978104 111.840218,166.092148 114.962662,165.891708 
	C115.674446,165.846024 116.316452,164.713364 116.716148,163.300095 
z"/>
<path fill="#E7E7E7" opacity="1.000000" stroke="none" 
	d="
M128.975952,221.974930 
	C128.537292,221.975906 128.098648,221.976883 127.082214,221.707153 
	C124.670143,221.629562 122.835861,221.822693 121.001572,222.015823 
	C118.300621,222.013748 115.599670,222.011673 112.170227,221.719513 
	C108.623428,221.293839 105.805122,221.158279 102.986816,221.022705 
	C102.544968,221.019836 102.103119,221.016968 101.074715,220.729797 
	C96.653519,219.639084 92.818878,218.832687 88.984238,218.026276 
	C88.543106,218.021469 88.101982,218.016678 87.107941,217.736603 
	C82.366997,215.978912 78.178963,214.496506 73.990936,213.014099 
	C71.835602,211.479187 69.680267,209.944290 67.369110,207.989288 
	C67.485802,207.369553 67.758301,207.169922 68.030792,206.970291 
	C75.558250,209.961472 82.877365,213.736923 90.650871,215.801941 
	C117.767593,223.005386 143.101944,218.273254 166.536041,202.973709 
	C167.083191,202.616486 167.694580,202.357697 168.633636,202.021057 
	C168.991257,201.989136 169.001831,202.001831 169.002533,202.375183 
	C168.999588,203.494904 168.995941,204.241287 168.992279,204.987656 
	C167.431122,205.795929 165.869980,206.604187 163.795410,207.744263 
	C152.588318,212.849625 142.371109,218.909149 130.378174,220.200424 
	C129.853165,220.256973 129.440796,221.359589 128.975952,221.974930 
z"/>
<path fill="#FCBA48" opacity="1.000000" stroke="none" 
	d="
M89.413780,98.818329 
	C92.018341,96.504143 94.622902,94.189957 97.644745,92.186630 
	C99.418106,93.288193 100.763687,94.738350 102.132011,94.760139 
	C109.706177,94.880730 117.295479,94.833221 124.857452,94.429039 
	C126.951752,94.317093 128.970474,92.791191 131.023865,91.914017 
	C131.578094,92.135696 132.132324,92.357384 132.926468,93.026566 
	C133.166382,93.474068 133.515244,93.792709 133.515244,93.792709 
	C133.515244,93.792709 133.984070,93.733582 133.984070,93.733582 
	C134.486893,94.040741 134.989700,94.347908 135.900360,95.045914 
	C137.257462,96.273155 138.206726,97.109558 139.155975,97.945961 
	C139.155975,97.945961 139.141586,98.342117 139.089813,98.854858 
	C139.025574,99.578499 139.013092,99.789406 138.532303,100.000183 
	C132.040939,100.002586 126.017876,100.005104 119.535767,100.005920 
	C109.189072,99.608917 99.301430,99.213623 89.413780,98.818329 
z"/>
<path fill="#FAAE47" opacity="1.000000" stroke="none" 
	d="
M96.133286,73.032318 
	C96.125748,72.856003 96.118217,72.679688 96.386459,72.027695 
	C96.702934,70.952293 96.743645,70.352585 96.784348,69.752869 
	C96.959419,66.489708 97.134491,63.226551 97.357628,59.067421 
	C100.199203,62.774033 102.596077,65.900558 105.054298,69.745285 
	C103.970383,73.435577 102.825111,76.407677 101.441177,79.999153 
	C101.747070,80.700806 102.525948,82.487366 103.304825,84.273933 
	C103.304825,84.273933 103.246498,84.272087 102.966408,84.261757 
	C102.461456,84.486794 102.236603,84.722168 102.011749,84.957550 
	C100.984406,85.398178 99.957062,85.838799 98.425499,85.997032 
	C92.616859,79.544403 87.316650,73.370506 81.989037,67.220367 
	C81.817535,67.022400 81.365471,67.067474 81.044197,66.999245 
	C80.788589,66.124237 80.532974,65.249229 80.277367,64.374222 
	C81.303345,64.551826 82.567978,64.407913 83.314491,64.962013 
	C86.769783,67.526749 90.081154,70.285385 93.876175,73.423126 
	C95.008530,74.111000 95.708794,74.350319 96.409042,74.589630 
	C96.317123,74.070526 96.225204,73.551422 96.133286,73.032318 
z"/>
<path fill="#E35B5A" opacity="1.000000" stroke="none" 
	d="
M177.996078,120.111725 
	C178.642761,120.204063 179.322052,120.205338 179.924530,120.421104 
	C180.319077,120.562401 180.602417,121.014183 181.352997,121.718750 
	C177.934158,122.843887 174.827286,123.717056 171.840683,124.895142 
	C169.323669,125.887985 165.720459,125.629807 165.522614,129.821457 
	C165.504501,130.205460 163.886139,130.913208 163.112915,130.796219 
	C158.755692,130.136948 154.429703,129.271317 149.922165,128.444717 
	C150.209793,124.944496 150.464371,121.846596 151.281281,118.367805 
	C155.719727,118.654572 159.573486,119.621971 163.477692,119.913589 
	C168.295212,120.273407 173.154724,120.071114 177.996078,120.111725 
z"/>
<path fill="#EFEFEF" opacity="1.000000" stroke="none" 
	d="
M194.973007,172.969498 
	C199.816788,162.075790 204.623474,151.238861 206.220428,139.187424 
	C208.841965,119.404198 207.215515,100.282372 198.992996,81.926506 
	C198.727707,81.334290 198.574463,80.689087 198.406967,80.058502 
	C198.377853,79.948883 198.539169,79.788689 198.832535,79.241432 
	C199.536911,79.818390 200.517441,80.216217 200.768661,80.887131 
	C205.842773,94.438370 210.137924,108.248795 209.913818,122.872757 
	C209.640152,140.731369 206.533005,158.053040 197.801651,173.967239 
	C197.586655,174.359100 197.076920,174.589249 196.331299,174.650375 
	C195.629623,173.927124 195.301315,173.448303 194.973007,172.969498 
z"/>
<path fill="#638979" opacity="1.000000" stroke="none" 
	d="
M96.693008,136.399078 
	C104.407112,136.357483 111.981583,136.705688 119.558929,136.972183 
	C123.037308,137.094498 126.521317,137.056396 130.462662,137.053131 
	C137.289185,138.030960 143.655838,139.046661 150.022476,140.062378 
	C149.986359,140.335571 149.950226,140.608749 149.914093,140.881943 
	C126.131386,140.881943 102.348679,140.881943 78.565971,140.881943 
	C78.527756,140.626633 78.489532,140.371338 78.451317,140.116028 
	C84.485725,138.995850 90.520142,137.875656 96.693008,136.399078 
z"/>
<path fill="#FDC74D" opacity="1.000000" stroke="none" 
	d="
M130.816711,91.636978 
	C128.970474,92.791191 126.951752,94.317093 124.857452,94.429039 
	C117.295479,94.833221 109.706177,94.880730 102.132011,94.760139 
	C100.763687,94.738350 99.418106,93.288193 97.987823,92.098091 
	C108.740639,84.672455 119.647934,85.393700 130.816711,91.636978 
z"/>
<path fill="#F68437" opacity="1.000000" stroke="none" 
	d="
M135.086990,89.657166 
	C133.785004,88.768265 132.483032,87.879372 131.028961,86.390869 
	C136.384949,79.529366 141.893021,73.267479 147.401108,67.005592 
	C146.921738,70.402077 146.442368,73.798553 145.648270,77.911728 
	C144.088455,83.748390 142.843369,88.868362 141.478943,93.974464 
	C141.359573,93.960587 141.120010,93.979904 140.806870,93.929871 
	C139.648361,93.287827 138.802979,92.695808 137.957611,92.103790 
	C137.370071,91.500168 136.782532,90.896545 135.891022,90.028671 
	C135.459869,89.544426 135.293182,89.508675 135.086990,89.657166 
z"/>
<path fill="#F68A38" opacity="1.000000" stroke="none" 
	d="
M81.017776,67.244469 
	C81.365471,67.067474 81.817535,67.022400 81.989037,67.220367 
	C87.316650,73.370506 92.616859,79.544403 98.092651,86.046646 
	C95.189194,88.659355 92.114372,90.940063 88.413879,93.151817 
	C86.148666,88.997063 84.509117,84.911263 82.869560,80.825462 
	C82.484528,77.289261 82.099495,73.753059 81.720093,69.534302 
	C81.518356,68.557838 81.311005,68.263931 81.103645,67.970024 
	C81.103645,67.970024 80.991364,67.489693 81.017776,67.244469 
z"/>
<path fill="#F68B48" opacity="1.000000" stroke="none" 
	d="
M141.120026,93.979904 
	C141.120010,93.979904 141.359573,93.960587 141.898163,93.960114 
	C146.312241,92.604523 150.187729,91.249405 154.063202,89.894295 
	C159.562805,89.294266 165.062424,88.694237 170.805313,88.328293 
	C171.048599,88.562378 171.061066,88.531281 171.061066,88.531281 
	C170.749039,88.907043 170.437012,89.282806 169.483551,89.858963 
	C164.663361,92.772285 160.547287,95.589050 156.284302,98.162453 
	C153.332809,99.944176 150.178726,101.390297 147.115173,102.986374 
	C145.562057,100.791374 144.008942,98.596359 142.117294,95.950119 
	C141.559174,94.992554 141.339600,94.486229 141.120026,93.979904 
z"/>
<path fill="#E45954" opacity="1.000000" stroke="none" 
	d="
M52.698727,123.149239 
	C50.518063,122.714584 48.337395,122.279930 44.951370,121.605026 
	C47.005814,121.068886 47.892643,120.837448 49.593460,120.745384 
	C56.841198,120.134651 63.272614,119.363617 69.709892,118.645218 
	C72.130753,118.375053 74.565224,118.226944 77.075264,118.224808 
	C77.297951,118.695343 77.508934,118.887238 77.789993,119.002113 
	C77.872360,120.066391 77.954727,121.130661 77.766602,122.797096 
	C77.760887,124.263786 78.025665,125.128319 78.290436,125.992851 
	C78.401588,126.429596 78.512749,126.866348 78.083656,127.631592 
	C76.024086,128.404266 74.504776,128.848434 72.985458,129.292603 
	C72.985458,129.292603 72.786026,129.409134 72.234848,129.269501 
	C68.265465,128.164673 64.847267,127.199478 61.429062,126.234276 
	C61.429062,126.234276 61.202080,126.298836 60.926796,125.955017 
	C60.040123,125.488853 59.428730,125.366516 58.817337,125.244186 
	C58.817337,125.244179 58.969059,125.099319 58.736961,124.869141 
	C57.812157,124.532883 57.119450,124.426811 56.426739,124.320732 
	C56.426739,124.320732 56.203712,124.386063 55.899162,124.001762 
	C54.629314,123.461388 53.664021,123.305313 52.698727,123.149239 
z"/>
<path fill="#F68E46" opacity="1.000000" stroke="none" 
	d="
M86.121468,96.115326 
	C84.717934,98.307060 83.314392,100.498802 81.270630,102.872749 
	C79.104828,102.508636 77.357933,102.271164 76.091248,101.363518 
	C69.994911,96.995178 64.028130,92.446045 58.015362,87.961075 
	C63.062191,88.626976 68.109016,89.292870 73.834862,90.256325 
	C78.620811,91.911499 83.741188,91.153908 86.121468,96.115326 
z"/>
<path fill="#F5F5F4" opacity="1.000000" stroke="none" 
	d="
M30.325485,81.308350 
	C23.458216,95.584732 21.737053,110.615677 21.102285,125.886116 
	C15.583576,114.536079 25.101345,75.435684 38.119862,65.963356 
	C35.314884,71.484276 32.906124,76.225334 30.325485,81.308350 
z"/>
<path fill="#ED6644" opacity="1.000000" stroke="none" 
	d="
M147.165771,103.335571 
	C150.178726,101.390297 153.332809,99.944176 156.284302,98.162453 
	C160.547287,95.589050 164.663361,92.772285 169.172150,90.053482 
	C167.126053,93.507881 164.749908,96.968155 161.954315,100.877502 
	C161.351151,101.883476 161.167435,102.440369 160.992523,102.999588 
	C161.001358,103.001900 160.998459,102.983910 160.725494,103.132156 
	C160.296844,103.856972 160.141129,104.433556 159.995911,105.007690 
	C160.006409,105.005257 160.007858,104.983772 159.701492,105.107544 
	C159.257004,105.638596 159.118881,106.045876 158.892471,106.540482 
	C158.804184,106.627815 158.455719,106.981804 158.050476,106.928116 
	C156.756134,107.586700 155.867050,108.298981 154.990448,109.009033 
	C155.002930,109.006805 154.999634,108.981674 154.621094,108.951752 
	C152.787338,109.329376 151.332138,109.736916 149.876938,110.144447 
	C149.876938,110.144447 149.952347,110.087494 149.899704,109.866486 
	C149.741928,109.339706 149.537415,109.131622 149.233521,109.021233 
	C148.561142,107.242416 147.888748,105.463593 147.165771,103.335571 
z"/>
<path fill="#F06C44" opacity="1.000000" stroke="none" 
	d="
M58.013618,87.977058 
	C64.028130,92.446045 69.994911,96.995178 76.091248,101.363518 
	C77.357933,102.271164 79.104828,102.508636 81.034454,103.091217 
	C80.706215,105.199028 79.973946,107.270599 78.721191,109.626060 
	C76.130013,109.267250 74.059311,108.624542 71.991501,107.993965 
	C71.994408,108.006096 72.019325,108.006859 72.009422,107.663773 
	C70.248177,105.477180 68.496826,103.633667 66.745483,101.790161 
	C63.561829,97.778160 60.378174,93.766167 57.178925,89.208862 
	C57.452408,88.432617 57.741486,88.201675 58.030563,87.970741 
	C58.030563,87.970741 58.011879,87.993042 58.013618,87.977058 
z"/>
<path fill="#EB614F" opacity="1.000000" stroke="none" 
	d="
M145.148376,109.923355 
	C147.393448,115.695534 147.370621,121.498276 145.439087,127.800957 
	C140.982285,127.409615 136.620667,127.026627 132.036209,126.624077 
	C132.036209,124.791100 132.036209,123.327400 132.470520,121.425285 
	C135.944687,118.999718 138.984558,117.012550 142.336151,114.865173 
	C143.481354,113.111084 144.314865,111.517220 145.148376,109.923355 
z"/>
<path fill="#EC604C" opacity="1.000000" stroke="none" 
	d="
M84.855896,129.384094 
	C84.911499,129.858368 84.985069,129.834091 85.000992,129.803528 
	C80.763206,124.861427 81.741318,119.060371 82.417053,112.821365 
	C82.610512,112.299103 83.035683,112.148857 83.140808,112.345749 
	C83.452957,112.769341 83.704948,112.921692 84.146118,113.304077 
	C88.263229,116.065414 92.236107,118.522369 96.208984,120.979324 
	C96.447784,122.739449 96.686584,124.499580 96.891304,126.008530 
	C92.584244,127.042030 88.692276,127.975922 84.855896,129.384094 
z"/>
<path fill="#FAB04F" opacity="1.000000" stroke="none" 
	d="
M89.197685,98.970657 
	C99.301430,99.213623 109.189072,99.608917 119.539314,100.306427 
	C120.007217,101.008980 120.012527,101.409309 120.017845,101.809647 
	C115.196754,101.999054 109.841125,99.560471 106.086075,105.030876 
	C105.532822,105.836861 103.272385,105.345818 101.878929,105.732666 
	C100.228188,106.190956 98.661034,106.950386 96.348755,107.813759 
	C92.704582,108.234077 90.177986,107.916626 89.543251,104.239494 
	C89.341095,103.068398 88.443207,102.017395 87.863670,100.911446 
	C88.236313,100.315292 88.608955,99.719139 89.197685,98.970657 
z"/>
<path fill="#EBEBEB" opacity="1.000000" stroke="none" 
	d="
M67.828156,206.704117 
	C67.758301,207.169922 67.485802,207.369553 67.097099,207.798157 
	C66.540840,208.026001 66.100777,208.024857 65.165756,207.773468 
	C64.111519,207.351578 63.552235,207.179916 62.992954,207.008255 
	C59.893398,204.697296 56.793839,202.386337 53.306190,199.716370 
	C52.277752,198.905899 51.637409,198.454468 50.997063,198.003052 
	C48.529167,195.433167 46.061272,192.863281 43.267632,189.818085 
	C41.959286,188.230179 40.976688,187.117569 39.994087,186.004959 
	C39.185383,184.766724 38.376678,183.528503 37.257488,181.825714 
	C36.295910,180.576096 35.644814,179.791000 34.993717,179.005920 
	C34.993717,179.005920 35.000000,179.000000 34.966049,178.656052 
	C33.957172,177.205887 32.982246,176.099670 32.007324,174.993454 
	C31.751562,174.195084 31.495800,173.396713 31.092569,171.983231 
	C30.618610,170.575363 30.292118,169.782593 29.965628,168.989838 
	C29.965628,168.989838 29.965143,168.514069 29.981688,168.002396 
	C30.005852,167.308456 30.013474,167.126175 30.021095,166.943909 
	C30.851751,167.646729 32.019917,168.182434 32.462940,169.077179 
	C40.400135,185.107574 52.856255,196.854813 67.828156,206.704117 
z"/>
<path fill="#FAA946" opacity="1.000000" stroke="none" 
	d="
M147.605774,66.733513 
	C141.893021,73.267479 136.384949,79.529366 130.771271,86.173157 
	C128.905777,85.922173 127.145882,85.289276 125.269882,84.085251 
	C125.436424,82.336288 125.719070,81.158455 126.002472,79.992737 
	C126.003227,80.004852 125.978981,80.003403 126.326797,79.979340 
	C129.457199,77.727394 132.239792,75.499504 135.022369,73.271614 
	C139.167313,69.901779 143.312241,66.531952 147.810425,62.874943 
	C147.810425,64.320953 147.810425,65.391197 147.605774,66.733513 
z"/>
<path fill="#755C9E" opacity="1.000000" stroke="none" 
	d="
M161.968567,160.677444 
	C157.782516,160.881973 156.355423,163.075409 156.382599,166.604156 
	C156.406860,169.755859 156.509369,172.923996 156.217133,176.051239 
	C156.122787,177.060623 154.885803,177.963242 154.171524,178.914719 
	C153.444656,177.979065 152.124512,177.065308 152.089020,176.104126 
	C151.887054,170.635544 151.860016,165.149307 152.124298,159.686020 
	C152.167358,158.795990 153.904419,157.364090 154.953888,157.272202 
	C157.382034,157.059616 159.886017,157.393356 162.325272,157.742813 
	C163.884506,157.966202 165.383072,158.613037 166.908844,159.070007 
	C165.405228,159.604553 163.901611,160.139099 161.968567,160.677444 
z"/>
<path fill="#FAAE47" opacity="1.000000" stroke="none" 
	d="
M120.208405,102.126114 
	C120.012527,101.409309 120.007217,101.008980 119.998360,100.308136 
	C126.017876,100.005104 132.040939,100.002586 138.532166,100.415619 
	C138.661453,103.209595 138.322556,105.588020 137.684570,108.123177 
	C135.654449,109.192451 133.923431,110.104988 132.192413,111.017525 
	C132.087402,106.721970 129.632614,105.654579 125.691139,105.504890 
	C123.890915,105.436531 122.160851,103.520569 120.208405,102.126114 
z"/>
<path fill="#F27A53" opacity="1.000000" stroke="none" 
	d="
M76.993492,118.023193 
	C74.565224,118.226944 72.130753,118.375053 69.709892,118.645218 
	C63.272614,119.363617 56.841198,120.134651 49.897442,120.802330 
	C53.784874,118.908936 58.182316,117.097961 63.256447,115.037651 
	C68.712639,113.867996 73.492142,112.947678 78.271645,112.027367 
	C78.177628,113.732544 78.083603,115.437714 77.699249,117.568283 
	C77.408913,117.993668 76.993492,118.023186 76.993492,118.023193 
z"/>
<path fill="#FBBC44" opacity="1.000000" stroke="none" 
	d="
M110.979858,82.861633 
	C110.023605,83.027588 109.067352,83.193542 107.337372,83.204620 
	C106.053070,81.315010 105.013992,79.535942 105.154930,77.855865 
	C105.369987,75.292061 106.400742,72.796677 107.085159,70.272247 
	C109.088661,65.501595 111.092171,60.730938 113.533920,56.066746 
	C113.646942,61.448132 113.321709,66.723053 112.715317,72.249016 
	C111.949387,75.953911 111.464622,79.407776 110.979858,82.861633 
z"/>
<path fill="#F9FAF9" opacity="1.000000" stroke="none" 
	d="
M41.994507,59.994774 
	C42.391716,58.777275 42.448196,57.246136 43.237049,56.389137 
	C55.873562,42.661034 71.078682,33.047977 89.163620,28.173651 
	C89.844322,27.990185 90.665009,28.326103 91.564323,29.160501 
	C87.528770,30.704136 83.464821,32.177860 79.462845,33.804142 
	C65.916618,39.308910 54.039536,47.157185 44.763012,58.647976 
	C44.282219,59.243534 43.395947,59.511749 42.349228,59.966179 
	C42.000000,60.000000 41.994507,59.994774 41.994507,59.994774 
z"/>
<path fill="#F27A53" opacity="1.000000" stroke="none" 
	d="
M177.667572,119.949219 
	C173.154724,120.071114 168.295212,120.273407 163.477692,119.913589 
	C159.573486,119.621971 155.719727,118.654572 151.397247,117.987930 
	C150.864456,117.043251 150.778015,116.097565 150.768280,114.567024 
	C150.795532,113.658226 150.653275,113.382202 150.418213,113.154099 
	C150.340973,112.979820 150.263733,112.805550 150.616470,112.324257 
	C155.356567,112.684418 159.666672,113.351601 163.976776,114.018776 
	C168.430878,115.941422 172.884979,117.864067 177.667572,119.949219 
z"/>
<path fill="#F79038" opacity="1.000000" stroke="none" 
	d="
M111.434578,82.930962 
	C111.464622,79.407776 111.949387,75.953911 113.109901,72.250107 
	C116.478226,72.006050 119.170799,72.011948 121.929703,72.433922 
	C121.934723,76.429214 121.873413,80.008446 121.812111,83.587677 
	C118.504501,83.391876 115.196899,83.196083 111.434578,82.930962 
z"/>
<path fill="#E96C4F" opacity="1.000000" stroke="none" 
	d="
M158.455719,106.981804 
	C158.455719,106.981804 158.804184,106.627815 159.099213,106.315857 
	C159.598770,105.663857 159.803314,105.323814 160.007858,104.983772 
	C160.007858,104.983772 160.006409,105.005257 160.259827,104.852089 
	C160.674988,104.127251 160.836731,103.555580 160.998459,102.983910 
	C160.998459,102.983910 161.001358,103.001900 161.262924,103.036980 
	C161.704742,103.047035 161.884979,103.022018 162.065231,102.997009 
	C166.288666,103.595993 170.512100,104.194969 175.649673,104.923592 
	C171.791931,107.495346 168.352997,109.787888 164.163574,112.079514 
	C160.608597,111.046288 157.804123,110.013977 154.999634,108.981674 
	C154.999634,108.981674 155.002930,109.006805 155.330017,108.969589 
	C156.589996,108.282188 157.522858,107.631996 158.455719,106.981804 
z"/>
<path fill="#F6A23E" opacity="1.000000" stroke="none" 
	d="
M122.611267,70.825233 
	C125.172188,67.201004 127.733109,63.576782 130.776855,59.269249 
	C131.300125,63.939480 131.745972,67.918793 132.000336,72.616837 
	C129.865540,75.558167 127.922256,77.780785 125.978981,80.003403 
	C125.978981,80.003403 126.003227,80.004852 125.718277,79.737061 
	C124.492638,76.587914 123.551956,73.706573 122.611267,70.825233 
z"/>
<path fill="#EC734F" opacity="1.000000" stroke="none" 
	d="
M63.081875,112.008911 
	C59.798416,109.671104 56.514954,107.333290 52.691284,104.610855 
	C56.871101,104.306656 60.374905,104.051651 64.677460,103.880051 
	C67.657242,105.311256 69.838280,106.659058 72.019325,108.006859 
	C72.019325,108.006859 71.994408,108.006096 72.096619,108.292747 
	C69.159851,109.722572 66.120865,110.865738 63.081875,112.008911 
z"/>
<path fill="#F48D3F" opacity="1.000000" stroke="none" 
	d="
M146.988159,81.954865 
	C150.433426,80.412094 153.878708,78.869324 157.323990,77.326553 
	C157.585175,77.713753 157.846344,78.100960 158.107529,78.488167 
	C156.790375,81.753548 155.473236,85.018921 153.624268,88.631989 
	C150.552444,89.322815 148.012421,89.665970 145.537582,90.000313 
	C146.011200,87.373428 146.499680,84.664146 146.988159,81.954865 
z"/>
<path fill="#F7923C" opacity="1.000000" stroke="none" 
	d="
M74.783234,88.832039 
	C73.191238,85.426132 71.599251,82.020226 69.403664,77.322983 
	C73.412193,78.723701 76.374016,79.758667 79.829720,81.268967 
	C81.201736,84.264244 82.079872,86.784187 83.132637,89.805229 
	C79.828918,89.420151 77.306068,89.126099 74.783234,88.832039 
z"/>
<path fill="#F7923C" opacity="1.000000" stroke="none" 
	d="
M87.586617,101.119766 
	C88.443207,102.017395 89.341095,103.068398 89.543251,104.239494 
	C90.177986,107.916626 92.704582,108.234077 96.092903,108.066986 
	C96.498512,109.459648 96.451080,110.833549 95.913353,112.572014 
	C91.616013,112.957611 87.808952,112.978653 84.001900,112.999695 
	C83.704948,112.921692 83.452957,112.769341 83.073891,112.062317 
	C82.840515,111.398201 82.779190,111.214417 82.717857,111.030640 
	C83.108498,109.884026 83.499138,108.737411 84.073212,107.156250 
	C84.456299,106.537285 84.470856,106.339348 84.300293,106.127892 
	C85.303383,104.527954 86.306473,102.928017 87.586617,101.119766 
z"/>
<path fill="#72579B" opacity="1.000000" stroke="none" 
	d="
M169.982269,160.464752 
	C170.831848,158.934021 171.675278,157.855713 172.518707,156.777405 
	C173.064941,156.949142 173.611176,157.120880 174.157410,157.292618 
	C174.157410,163.814316 174.224854,170.337738 174.058899,176.855209 
	C174.041214,177.549515 172.658844,178.209091 171.909561,178.884781 
	C171.263306,177.872986 170.099258,176.881424 170.058823,175.845947 
	C169.864700,170.876190 169.974350,165.894577 169.982269,160.464752 
z"/>
<path fill="#F79C39" opacity="1.000000" stroke="none" 
	d="
M121.863373,72.017853 
	C119.170799,72.011948 116.478226,72.006050 113.391068,71.999069 
	C113.321709,66.723053 113.646942,61.448132 113.742737,55.764729 
	C113.696449,54.592907 113.879593,53.829563 114.134804,52.765884 
	C116.688751,58.901962 119.095253,64.683784 121.723778,70.958786 
	C121.918327,71.640594 121.890846,71.829224 121.863373,72.017853 
z"/>
<path fill="#7E987E" opacity="1.000000" stroke="none" 
	d="
M74.206085,132.622925 
	C77.996376,133.076279 81.481628,133.556595 84.973015,133.987106 
	C88.244820,134.390533 91.523117,134.741241 94.891029,135.504272 
	C87.612541,136.268738 80.241585,136.644104 72.152397,136.703705 
	C68.620522,135.924118 65.806885,135.460281 62.993240,134.996445 
	C66.630066,134.207001 70.266899,133.417572 74.206085,132.622925 
z"/>
<path fill="#7E987E" opacity="1.000000" stroke="none" 
	d="
M134.514496,135.468124 
	C135.869171,134.880310 137.644211,134.207230 139.466095,134.037857 
	C143.881912,133.627380 148.319519,133.451462 152.994537,132.787445 
	C156.280304,132.916870 159.319901,133.439865 162.639740,134.417603 
	C162.558304,135.703094 162.196655,136.533798 161.834991,137.364517 
	C152.875381,136.780334 143.915756,136.196152 134.514496,135.468124 
z"/>
<path fill="#EFEFEF" opacity="1.000000" stroke="none" 
	d="
M28.038689,163.036224 
	C25.687998,156.166779 23.093424,149.367401 21.091316,142.397827 
	C20.116041,139.002762 20.246759,135.290009 20.654745,131.766129 
	C23.410305,141.596573 26.165865,151.427032 28.743420,161.740692 
	C28.288282,162.428802 28.112707,162.699585 28.038689,163.036224 
z"/>
<path fill="#F09653" opacity="1.000000" stroke="none" 
	d="
M106.070221,116.020981 
	C106.621506,111.133018 109.693611,108.756691 114.274902,108.502083 
	C118.639885,108.259476 121.390900,111.216415 121.922882,116.796356 
	C120.739792,117.013451 120.101997,117.008156 119.334541,116.635986 
	C116.512718,110.361839 114.140694,110.308929 107.670441,116.014954 
	C106.923653,116.014267 106.496933,116.017624 106.070221,116.020981 
z"/>
<path fill="#E87957" opacity="1.000000" stroke="none" 
	d="
M119.464195,117.002853 
	C120.101997,117.008156 120.739792,117.013451 121.696724,117.012619 
	C121.863213,122.234528 119.557663,124.875519 114.912567,125.143280 
	C109.940201,125.429909 106.841415,122.550018 106.000648,116.408600 
	C106.496933,116.017624 106.923653,116.014267 107.722420,116.371811 
	C110.162483,118.475945 112.036644,121.100433 114.374954,121.614784 
	C115.670517,121.899773 117.742294,118.656036 119.464195,117.002853 
z"/>
<path fill="#F5F5F4" opacity="1.000000" stroke="none" 
	d="
M129.398682,221.984375 
	C129.440796,221.359589 129.853165,220.256973 130.378174,220.200424 
	C142.371109,218.909149 152.588318,212.849625 163.644653,208.043320 
	C160.355240,210.333710 156.960587,213.340652 152.995850,214.833344 
	C145.442963,217.676880 137.564621,219.655884 129.398682,221.984375 
z"/>
<path fill="#F68A38" opacity="1.000000" stroke="none" 
	d="
M132.121338,111.344742 
	C133.923431,110.104988 135.654449,109.192451 138.033203,108.098785 
	C140.397568,107.296852 142.114197,106.676041 143.830841,106.055237 
	C144.271927,107.109207 144.713013,108.163170 145.151245,109.570251 
	C144.314865,111.517220 143.481354,113.111084 141.978500,114.703438 
	C138.261887,114.134392 135.214645,113.566849 132.167389,112.999313 
	C132.128357,112.556862 132.089325,112.114403 132.121338,111.344742 
z"/>
<path fill="#F58344" opacity="1.000000" stroke="none" 
	d="
M84.146118,113.304077 
	C87.808952,112.978653 91.616013,112.957611 95.834282,112.977570 
	C96.289070,115.381401 96.332634,117.744225 96.292587,120.543190 
	C92.236107,118.522369 88.263229,116.065414 84.146118,113.304077 
z"/>
<path fill="#6E9284" opacity="1.000000" stroke="none" 
	d="
M62.587151,135.009918 
	C65.806885,135.460281 68.620522,135.924118 71.705582,136.664337 
	C63.630711,138.138458 55.284420,139.336197 46.938126,140.533920 
	C46.823700,140.103348 46.709278,139.672775 46.594852,139.242188 
	C51.790257,137.835922 56.985661,136.429657 62.587151,135.009918 
z"/>
<path fill="#6E9284" opacity="1.000000" stroke="none" 
	d="
M162.178055,137.541336 
	C162.196655,136.533798 162.558304,135.703094 162.967102,134.538330 
	C169.409653,135.865494 175.805054,137.526703 182.200455,139.187927 
	C182.092484,139.672653 181.984512,140.157379 181.876541,140.642120 
	C175.424728,139.667465 168.972931,138.692810 162.178055,137.541336 
z"/>
<path fill="#F8BD63" opacity="1.000000" stroke="none" 
	d="
M74.556740,89.107719 
	C77.306068,89.126099 79.828918,89.420151 83.132637,89.805229 
	C82.079872,86.784187 81.201736,84.264244 80.161972,81.427834 
	C80.722054,81.073219 81.443771,81.035072 82.517525,80.911194 
	C84.509117,84.911263 86.148666,88.997063 88.121887,93.321487 
	C87.853432,94.323738 87.251297,95.087364 86.385315,95.983154 
	C83.741188,91.153908 78.620811,91.911499 74.255432,90.284126 
	C74.108078,89.804047 74.219170,89.593719 74.556740,89.107719 
z"/>
<path fill="#F58344" opacity="1.000000" stroke="none" 
	d="
M132.074310,113.436020 
	C135.214645,113.566849 138.261887,114.134392 141.666794,114.863663 
	C138.984558,117.012550 135.944687,118.999718 132.545349,120.993576 
	C132.117661,118.624420 132.049438,116.248573 132.074310,113.436020 
z"/>
<path fill="#F8BD63" opacity="1.000000" stroke="none" 
	d="
M146.710876,81.732841 
	C146.499680,84.664146 146.011200,87.373428 145.537582,90.000313 
	C148.012421,89.665970 150.552444,89.322815 153.498199,88.970169 
	C153.903915,88.960678 154.037231,89.418251 154.050217,89.656273 
	C150.187729,91.249405 146.312241,92.604523 142.017532,93.973984 
	C142.843369,88.868362 144.088455,83.748390 145.579727,78.328201 
	C146.028473,79.188927 146.231018,80.349876 146.710876,81.732841 
z"/>
<path fill="#E7E7E7" opacity="1.000000" stroke="none" 
	d="
M186.005493,189.007431 
	C183.239212,191.981186 180.472931,194.954941 176.974518,197.965881 
	C175.470047,197.999588 174.697693,197.996109 173.925354,197.992630 
	C177.706558,194.338852 181.487747,190.685059 185.625107,187.006287 
	C185.981277,186.981293 186.004883,187.004883 186.003571,187.338562 
	C186.003342,188.117310 186.004410,188.562363 186.005493,189.007431 
z"/>
<path fill="#DC726C" opacity="1.000000" stroke="none" 
	d="
M61.647697,126.566826 
	C64.847267,127.199478 68.265465,128.164673 72.131454,129.218048 
	C67.861992,130.593597 63.144737,131.880966 57.807232,133.337616 
	C59.589436,130.510818 60.727882,128.705093 61.647697,126.566826 
z"/>
<path fill="#F6AC70" opacity="1.000000" stroke="none" 
	d="
M63.166412,112.387558 
	C66.120865,110.865738 69.159851,109.722572 72.093719,108.280617 
	C74.059311,108.624542 76.130013,109.267250 78.558952,109.949554 
	C78.832321,110.534225 78.747459,111.079292 78.467117,111.825867 
	C73.492142,112.947678 68.712639,113.867996 63.610374,114.924942 
	C63.275394,114.296448 63.263176,113.531326 63.166412,112.387558 
z"/>
<path fill="#F9D06D" opacity="1.000000" stroke="none" 
	d="
M106.773453,70.187134 
	C106.400742,72.796677 105.369987,75.292061 105.154930,77.855865 
	C105.013992,79.535942 106.053070,81.315010 106.971985,83.196930 
	C106.255051,83.655121 105.129776,83.966125 103.654663,84.275536 
	C102.525948,82.487366 101.747070,80.700806 101.441177,79.999153 
	C102.825111,76.407677 103.970383,73.435577 105.186508,70.052711 
	C105.658821,69.795303 106.060287,69.948662 106.773453,70.187134 
z"/>
<path fill="#F9D06D" opacity="1.000000" stroke="none" 
	d="
M121.929703,72.433922 
	C121.890846,71.829224 121.918327,71.640594 121.996292,71.169868 
	C122.046791,70.887779 122.318565,70.755768 122.464920,70.790497 
	C123.551956,73.706573 124.492638,76.587914 125.717522,79.724937 
	C125.719070,81.158455 125.436424,82.336288 125.004944,83.856842 
	C124.014496,84.113243 123.172874,84.026939 122.071686,83.764153 
	C121.873413,80.008446 121.934723,76.429214 121.929703,72.433922 
z"/>
<path fill="#7C63A4" opacity="1.000000" stroke="none" 
	d="
M170.172882,148.882050 
	C171.922897,149.241440 173.421188,149.867767 174.919495,150.494080 
	C173.925537,151.541962 172.931580,152.589859 171.937622,153.637756 
	C171.265472,152.141495 170.593323,150.645233 170.172882,148.882050 
z"/>
<path fill="#F6A23E" opacity="1.000000" stroke="none" 
	d="
M143.764771,105.722595 
	C142.114197,106.676041 140.397568,107.296852 138.332291,107.942047 
	C138.322556,105.588020 138.661453,103.209595 139.000488,100.415741 
	C139.013092,99.789406 139.025574,99.578499 139.059479,99.050735 
	C140.620178,100.952560 142.159439,103.171257 143.764771,105.722595 
z"/>
<path fill="#F6AC70" opacity="1.000000" stroke="none" 
	d="
M154.621094,108.951752 
	C157.804123,110.013977 160.608597,111.046288 163.817932,112.128983 
	C164.174744,112.588875 164.126709,112.998375 164.027725,113.713326 
	C159.666672,113.351601 155.356567,112.684418 150.611938,112.038353 
	C150.069260,111.638641 149.961136,111.217819 149.864975,110.470718 
	C151.332138,109.736916 152.787338,109.329376 154.621094,108.951752 
z"/>
<path fill="#E7E7E7" opacity="1.000000" stroke="none" 
	d="
M190.008102,184.010376 
	C189.529083,184.911606 189.050049,185.812836 187.951538,186.855835 
	C186.889679,187.000031 186.447281,187.002457 186.004883,187.004883 
	C186.004883,187.004883 185.981277,186.981293 185.968155,186.968140 
	C187.760086,184.064362 189.565155,181.173737 191.895660,178.240143 
	C192.625183,178.474350 192.829254,178.751511 193.033340,179.028687 
	C192.855209,179.577271 192.677078,180.125854 191.963470,180.978241 
	C190.954681,182.191483 190.481400,183.100937 190.008102,184.010376 
z"/>
<path fill="#F5F5F4" opacity="1.000000" stroke="none" 
	d="
M74.054626,213.367249 
	C78.178963,214.496506 82.366997,215.978912 86.777069,217.735962 
	C82.705513,216.580521 78.411911,215.150452 74.054626,213.367249 
z"/>
<path fill="#F5F5F4" opacity="1.000000" stroke="none" 
	d="
M89.054169,218.385162 
	C92.818878,218.832687 96.653519,219.639084 100.743317,220.731033 
	C96.519341,222.981430 92.776840,221.097198 89.054169,218.385162 
z"/>
<path fill="#F9D06D" opacity="1.000000" stroke="none" 
	d="
M126.326797,79.979340 
	C127.922256,77.780785 129.865540,75.558167 132.024872,73.050514 
	C132.929581,72.938805 133.618240,73.112137 134.664627,73.278549 
	C132.239792,75.499504 129.457199,77.727394 126.326797,79.979340 
z"/>
<path fill="#FBF3E9" opacity="1.000000" stroke="none" 
	d="
M140.806885,93.929871 
	C141.339600,94.486229 141.559174,94.992554 141.831238,95.773422 
	C141.129120,96.562317 140.374557,97.076668 139.387970,97.768494 
	C138.206726,97.109558 137.257462,96.273155 136.178528,95.144287 
	C136.664597,94.131363 137.280365,93.410904 137.926880,92.397118 
	C138.802979,92.695808 139.648361,93.287827 140.806885,93.929871 
z"/>
<path fill="#F5F5F4" opacity="1.000000" stroke="none" 
	d="
M103.074997,221.403381 
	C105.805122,221.158279 108.623428,221.293839 111.720100,221.722778 
	C109.053368,221.938766 106.108269,221.861420 103.074997,221.403381 
z"/>
<path fill="#F6AC70" opacity="1.000000" stroke="none" 
	d="
M72.009422,107.663773 
	C69.838280,106.659058 67.657242,105.311256 65.121140,103.856506 
	C65.265121,103.267174 65.764168,102.784782 66.504349,102.046280 
	C68.496826,103.633667 70.248177,105.477180 72.009422,107.663773 
z"/>
<path fill="#F5F5F4" opacity="1.000000" stroke="none" 
	d="
M121.248878,222.288452 
	C122.835861,221.822693 124.670143,221.629562 126.753220,221.706909 
	C125.166740,222.171951 123.331459,222.366516 121.248878,222.288452 
z"/>
<path fill="#EFEFEF" opacity="1.000000" stroke="none" 
	d="
M173.721008,198.091125 
	C174.697693,197.996109 175.470047,197.999588 176.627762,198.006836 
	C175.922607,199.009735 174.832077,200.008881 173.372818,200.661621 
	C172.993500,199.844482 172.982925,199.373749 172.972351,198.903000 
	C173.076279,198.606049 173.257706,198.368256 173.721008,198.091125 
z"/>
<path fill="#E7E7E7" opacity="1.000000" stroke="none" 
	d="
M194.723938,173.147308 
	C195.301315,173.448303 195.629623,173.927124 195.984467,174.709778 
	C195.836151,175.564163 195.661301,176.114716 194.980133,176.722794 
	C193.968933,176.518768 193.464020,176.257217 192.959122,175.995651 
	C193.464386,175.105469 193.969635,174.215302 194.723938,173.147308 
z"/>
<path fill="#F5F5F4" opacity="1.000000" stroke="none" 
	d="
M39.999023,186.368652 
	C40.976688,187.117569 41.959286,188.230179 42.969780,189.672516 
	C41.999771,188.912292 41.001865,187.822327 39.999023,186.368652 
z"/>
<path fill="#EFEFEF" opacity="1.000000" stroke="none" 
	d="
M196.287354,72.671265 
	C196.314011,73.475754 196.193893,74.008972 196.073792,74.542206 
	C195.605194,73.547806 195.136597,72.553406 194.667999,71.559006 
	C195.158875,71.839325 195.649734,72.119659 196.287354,72.671265 
z"/>
<path fill="#E7E7E7" opacity="1.000000" stroke="none" 
	d="
M172.647491,198.961243 
	C172.982925,199.373749 172.993500,199.844482 173.009659,200.667847 
	C172.693283,201.119812 172.433105,201.305679 171.747894,201.791077 
	C170.507965,202.003357 169.754898,202.002594 169.001831,202.001831 
	C169.001831,202.001831 168.991257,201.989136 168.983963,201.979202 
	C170.091995,200.986008 171.207321,200.002747 172.647491,198.961243 
z"/>
<path fill="#EFEFEF" opacity="1.000000" stroke="none" 
	d="
M169.002533,202.375183 
	C169.754898,202.002594 170.507965,202.003357 171.637970,202.008026 
	C171.234695,202.984375 170.454468,203.956833 169.333252,204.958466 
	C168.995941,204.241287 168.999588,203.494904 169.002533,202.375183 
z"/>
<path fill="#F5F5F4" opacity="1.000000" stroke="none" 
	d="
M32.037292,175.340546 
	C32.982246,176.099670 33.957172,177.205887 34.962223,178.659119 
	C34.017323,177.899963 33.042290,176.793808 32.037292,175.340546 
z"/>
<path fill="#F5F5F4" opacity="1.000000" stroke="none" 
	d="
M40.999638,62.999821 
	C40.206657,63.496059 39.413677,63.992302 38.620697,64.488541 
	C38.894478,63.748158 39.168259,63.007778 39.938709,62.240685 
	C40.709251,62.414322 40.897339,62.676270 40.999638,62.999821 
z"/>
<path fill="#EFEFEF" opacity="1.000000" stroke="none" 
	d="
M192.722137,176.162628 
	C193.464020,176.257217 193.968933,176.518768 194.736420,176.889618 
	C194.554810,177.641785 194.110596,178.284653 193.349854,178.978104 
	C192.829254,178.751511 192.625183,178.474350 192.189880,178.074188 
	C192.134155,177.410660 192.309662,176.870132 192.722137,176.162628 
z"/>
<path fill="#DC726C" opacity="1.000000" stroke="none" 
	d="
M73.317642,129.321075 
	C74.504776,128.848434 76.024086,128.404266 77.977753,127.954422 
	C76.824669,128.415680 75.237244,128.882599 73.317642,129.321075 
z"/>
<path fill="#F9D06D" opacity="1.000000" stroke="none" 
	d="
M95.778091,73.110168 
	C96.225204,73.551422 96.317123,74.070526 96.409042,74.589630 
	C95.708794,74.350319 95.008530,74.111000 94.149155,73.644348 
	C94.467651,73.340691 94.945274,73.264359 95.778091,73.110168 
z"/>
<path fill="#F5F5F4" opacity="1.000000" stroke="none" 
	d="
M29.717892,169.195053 
	C30.292118,169.782593 30.618610,170.575363 30.963577,171.691177 
	C30.478088,171.142914 29.974121,170.271591 29.717892,169.195053 
z"/>
<path fill="#F5F5F4" opacity="1.000000" stroke="none" 
	d="
M34.999603,179.359039 
	C35.644814,179.791000 36.295910,180.576096 36.970642,181.683121 
	C36.331345,181.240768 35.668415,180.476471 34.999603,179.359039 
z"/>
<path fill="#F9FAF9" opacity="1.000000" stroke="none" 
	d="
M41.261971,62.794685 
	C40.897339,62.676270 40.709251,62.414322 40.215996,62.104240 
	C40.449440,61.356548 40.902260,60.718597 41.674793,60.037712 
	C41.994507,59.994774 42.000000,60.000000 42.002777,60.002747 
	C41.845139,60.866844 41.684719,61.728199 41.261971,62.794685 
z"/>
<path fill="#EFEFEF" opacity="1.000000" stroke="none" 
	d="
M190.351440,183.954742 
	C190.481400,183.100937 190.954681,182.191483 191.720459,181.144623 
	C191.573578,181.971176 191.134186,182.935150 190.351440,183.954742 
z"/>
<path fill="#EFEFEF" opacity="1.000000" stroke="none" 
	d="
M186.003571,187.338562 
	C186.447281,187.002457 186.889679,187.000031 187.663834,186.997284 
	C187.545792,187.638626 187.096008,188.280304 186.325851,188.964706 
	C186.004410,188.562363 186.003342,188.117310 186.003571,187.338562 
z"/>
<path fill="#EFEFEF" opacity="1.000000" stroke="none" 
	d="
M30.023033,166.711914 
	C30.013474,167.126175 30.005852,167.308456 29.985189,167.764542 
	C29.972147,168.038361 29.487194,168.019501 29.137075,167.793884 
	C28.590508,167.296432 28.332420,167.109879 28.012691,167.008606 
	C28.168989,166.444489 28.325285,165.880356 28.841076,165.366638 
	C29.473494,165.616669 29.746418,165.816330 30.019341,166.015991 
	C30.019339,166.015991 30.024973,166.479935 30.023033,166.711914 
z"/>
<path fill="#F5F5F4" opacity="1.000000" stroke="none" 
	d="
M51.038780,198.323669 
	C51.637409,198.454468 52.277752,198.905899 52.959770,199.677979 
	C52.361126,199.547180 51.720810,199.095734 51.038780,198.323669 
z"/>
<path fill="#F68E46" opacity="1.000000" stroke="none" 
	d="
M57.877563,87.697052 
	C57.741486,88.201675 57.452408,88.432617 57.031609,88.911316 
	C56.323624,88.632088 55.747356,88.105095 54.472084,86.938866 
	C56.185165,87.194046 56.954861,87.308701 57.877563,87.697052 
z"/>
<path fill="#F5F5F4" opacity="1.000000" stroke="none" 
	d="
M63.024818,207.299561 
	C63.552235,207.179916 64.111519,207.351578 64.835480,207.773956 
	C64.352333,207.880081 63.704506,207.735474 63.024818,207.299561 
z"/>
<path fill="#DC726C" opacity="1.000000" stroke="none" 
	d="
M78.343842,125.613983 
	C78.025665,125.128319 77.760887,124.263786 77.743492,123.197739 
	C78.126328,123.742516 78.261787,124.488815 78.343842,125.613983 
z"/>
<path fill="#DC726C" opacity="1.000000" stroke="none" 
	d="
M52.977142,123.375832 
	C53.664021,123.305313 54.629314,123.461388 55.807983,123.929718 
	C55.099426,124.028793 54.177494,123.815605 52.977142,123.375832 
z"/>
<path fill="#EBEBEB" opacity="1.000000" stroke="none" 
	d="
M30.014580,165.674042 
	C29.746418,165.816330 29.473494,165.616669 29.081287,165.188507 
	C28.964413,164.526154 28.966820,164.092331 28.983896,163.328735 
	C28.998568,162.998947 29.006144,162.970718 29.006145,162.970718 
	C29.340704,163.757843 29.675261,164.544968 30.014580,165.674042 
z"/>
<path fill="#ED6644" opacity="1.000000" stroke="none" 
	d="
M171.242783,88.476646 
	C171.061066,88.531281 171.048599,88.562378 171.052551,88.579926 
	C171.463943,88.444763 171.871399,88.292053 171.990509,88.247414 
	C171.997681,88.245201 171.711090,88.333603 171.242783,88.476646 
z"/>
<path fill="#DC726C" opacity="1.000000" stroke="none" 
	d="
M59.020782,125.480492 
	C59.428730,125.366516 60.040123,125.488853 60.831783,125.885056 
	C60.416107,126.011536 59.820168,125.864166 59.020782,125.480492 
z"/>
<path fill="#F9D06D" opacity="1.000000" stroke="none" 
	d="
M96.595619,69.990555 
	C96.743645,70.352585 96.702934,70.952293 96.447266,71.770050 
	C96.290512,71.401474 96.348701,70.814865 96.595619,69.990555 
z"/>
<path fill="#F48D3F" opacity="1.000000" stroke="none" 
	d="
M158.971252,76.458138 
	C159.054123,76.451157 158.958160,76.638557 158.958160,76.638557 
	C158.958160,76.638557 158.888382,76.465118 158.971252,76.458138 
z"/>
<path fill="#DC726C" opacity="1.000000" stroke="none" 
	d="
M56.658142,124.573822 
	C57.119450,124.426811 57.812157,124.532883 58.681740,124.958313 
	C58.202255,125.127403 57.545898,124.977150 56.658142,124.573822 
z"/>
<path fill="#F6AC70" opacity="1.000000" stroke="none" 
	d="
M162.068054,102.664825 
	C161.884979,103.022018 161.704742,103.047035 161.254089,103.034668 
	C161.167435,102.440369 161.351151,101.883476 161.792542,101.166763 
	C162.057068,101.448845 162.063965,101.890739 162.068054,102.664825 
z"/>
<path fill="#F6AC70" opacity="1.000000" stroke="none" 
	d="
M149.226532,109.251556 
	C149.537415,109.131622 149.741928,109.339706 149.852722,109.871414 
	C149.526413,110.015602 149.313461,109.810448 149.226532,109.251556 
z"/>
<path fill="#F9D06D" opacity="1.000000" stroke="none" 
	d="
M102.261078,84.944031 
	C102.236603,84.722168 102.461456,84.486794 102.939377,84.250786 
	C103.087929,84.600075 102.860588,84.826866 102.261078,84.944031 
z"/>
<path fill="#FBF3E9" opacity="1.000000" stroke="none" 
	d="
M135.158630,89.739532 
	C135.293182,89.508675 135.459869,89.544426 135.593109,89.911697 
	C135.599152,90.058968 135.230286,89.821892 135.158630,89.739532 
z"/>
<path fill="#FBF3E9" opacity="1.000000" stroke="none" 
	d="
M133.878479,93.570786 
	C133.984070,93.733582 133.515244,93.792709 133.515244,93.792709 
	C133.515244,93.792709 133.166382,93.474068 133.142975,93.238907 
	C133.375610,93.076683 133.593384,93.211426 133.878479,93.570786 
z"/>
<path fill="#FBF3E9" opacity="1.000000" stroke="none" 
	d="
M84.216064,106.236420 
	C84.470856,106.339348 84.456299,106.537285 84.107498,106.794357 
	C83.974899,106.679245 84.032722,106.505226 84.216064,106.236420 
z"/>
<path fill="#EBEBEB" opacity="1.000000" stroke="none" 
	d="
M28.118250,167.226929 
	C28.332420,167.109879 28.590508,167.296432 28.894560,167.785477 
	C28.681255,167.902679 28.421803,167.716873 28.118250,167.226929 
z"/>
<path fill="#FBF3E9" opacity="1.000000" stroke="none" 
	d="
M82.525322,111.221428 
	C82.779190,111.214417 82.840515,111.398201 82.968765,111.865425 
	C83.035683,112.148857 82.610512,112.299103 82.401871,112.385483 
	C82.239754,112.118645 82.286270,111.765427 82.525322,111.221428 
z"/>
<path fill="#E35B5A" opacity="1.000000" stroke="none" 
	d="
M150.396729,113.397980 
	C150.653275,113.382202 150.795532,113.658226 150.867172,114.223068 
	C150.602524,114.262047 150.431137,113.988014 150.396729,113.397980 
z"/>
<path fill="#DC726C" opacity="1.000000" stroke="none" 
	d="
M77.075264,118.224800 
	C76.993492,118.023186 77.408913,117.993668 77.616852,117.987343 
	C77.869110,118.152885 77.913422,118.324760 77.873863,118.749374 
	C77.508934,118.887238 77.297951,118.695343 77.075264,118.224800 
z"/>
<path fill="#F9D06D" opacity="1.000000" stroke="none" 
	d="
M108.485382,84.483917 
	C108.473183,84.502831 108.497589,84.465004 108.485382,84.483917 
z"/>
<path fill="#F8BD63" opacity="1.000000" stroke="none" 
	d="
M81.082283,68.238441 
	C81.311005,68.263931 81.518356,68.557838 81.671951,69.126343 
	C81.432434,69.102913 81.246674,68.804886 81.082283,68.238441 
z"/>
<path fill="#F5F5F4" opacity="1.000000" stroke="none" 
	d="
M28.271328,163.028442 
	C28.112707,162.699585 28.288282,162.428802 28.785522,162.113266 
	C29.005630,162.002640 29.008198,162.487061 29.007172,162.728882 
	C29.006144,162.970718 28.998568,162.998947 28.983936,163.002960 
	C28.969307,163.006989 28.503967,163.020645 28.271328,163.028442 
z"/>
<path fill="#F9FAF9" opacity="1.000000" stroke="none" 
	d="
M141.222687,173.420380 
	C135.545212,177.788956 129.414734,172.883774 130.056946,168.199951 
	C130.381775,165.831100 131.594849,162.838425 133.406342,161.642136 
	C135.012787,160.581268 138.768677,160.724869 140.188446,161.947601 
	C141.989014,163.498260 142.710983,166.609238 143.244568,169.182861 
	C143.482956,170.332718 142.129059,171.812668 141.222687,173.420380 
z"/>
<path fill="#F5F5F4" opacity="1.000000" stroke="none" 
	d="
M116.853363,163.690552 
	C116.316452,164.713364 115.674446,165.846024 114.962662,165.891708 
	C111.840218,166.092148 108.697586,165.978104 105.562279,165.978104 
	C105.300278,165.571930 105.038269,165.165771 104.776268,164.759598 
	C106.481819,163.368332 108.110069,160.981033 109.912750,160.841110 
	C112.103729,160.671066 114.441742,162.395340 116.853363,163.690552 
z"/>
<path fill="#F6AC70" opacity="1.000000" stroke="none" 
	d="
M158.050476,106.928116 
	C157.522858,107.631996 156.589996,108.282188 155.317535,108.971817 
	C155.867050,108.298981 156.756134,107.586700 158.050476,106.928116 
z"/>
<path fill="#F6AC70" opacity="1.000000" stroke="none" 
	d="
M160.725494,103.132156 
	C160.836731,103.555580 160.674988,104.127251 160.249344,104.854523 
	C160.141129,104.433556 160.296844,103.856972 160.725494,103.132156 
z"/>
<path fill="#F6AC70" opacity="1.000000" stroke="none" 
	d="
M159.701492,105.107544 
	C159.803314,105.323814 159.598770,105.663857 159.187500,106.228531 
	C159.118881,106.045876 159.257004,105.638596 159.701492,105.107544 
z"/>
<path fill="#FDF5EE" opacity="1.000000" stroke="none" 
	d="
M119.334541,116.635986 
	C117.742294,118.656036 115.670517,121.899773 114.374954,121.614784 
	C112.036644,121.100433 110.162483,118.475945 108.042496,116.375854 
	C114.140694,110.308929 116.512718,110.361839 119.334541,116.635986 
z"/>
</svg>